<?xml version="1.0" encoding="utf-8"?>
<!-- Generator: Adobe Illustrator 16.0.0, SVG Export Plug-In . SVG Version: 6.00 Build 0)  -->
<!DOCTYPE svg PUBLIC "-//W3C//DTD SVG 1.1//EN" "http://www.w3.org/Graphics/SVG/1.1/DTD/svg11.dtd">
<svg version="1.1" xmlns="http://www.w3.org/2000/svg" xmlns:xlink="http://www.w3.org/1999/xlink" x="0px" y="0px" width="192px"
	 height="192px" viewBox="0 0 192 192" enable-background="new 0 0 192 192" xml:space="preserve">
<g id="Earth">
	<circle fill="#3A393C" cx="96.286" cy="96" r="91"/>
	<radialGradient id="SVGID_1_" cx="148" cy="78" r="120.6024" gradientUnits="userSpaceOnUse">
		<stop  offset="0" style="stop-color:#F1F2F2"/>
		<stop  offset="0.1819" style="stop-color:#EEEFEF"/>
		<stop  offset="0.35" style="stop-color:#E5E5E6"/>
		<stop  offset="0.5127" style="stop-color:#D5D6D8"/>
		<stop  offset="0.672" style="stop-color:#BFC1C3"/>
		<stop  offset="0.829" style="stop-color:#A3A6A8"/>
		<stop  offset="0.9821" style="stop-color:#848689"/>
		<stop  offset="1" style="stop-color:#808285"/>
	</radialGradient>
	<ellipse fill="url(#SVGID_1_)" cx="96.286" cy="96" rx="90.931" ry="90.574"/>
	<radialGradient id="SVGID_2_" cx="147" cy="79" r="83.0967" gradientUnits="userSpaceOnUse">
		<stop  offset="0" style="stop-color:#6D6E71"/>
		<stop  offset="1" style="stop-color:#000000"/>
	</radialGradient>
	<path fill="url(#SVGID_2_)" d="M187.157,93.126c-1.244-2.569-3.451-11.376-5.451-10.376c0-2,2-4,1-4
		c-5.385-1.616-6.42-4.972-7.322-8.506c-0.496-1.946-0.951-3.946-2.072-5.739c-0.623-0.997-1.605-5.755-1.605-6.755
		c0.445-1.779-0.494-4.35-1.236-6.919c-0.766-2.656-1.318-5.312,0.092-7.093c-11.871-16.705-29.277-29.231-49.561-34.925
		c-0.598,1.199-0.023,1.454,0.406,3.601c-2.525-0.625-6.313-1.666-7.094-1.875c-4.588-1.225-4.367-2.259-6.438-3.123
		c-2.08-0.868-5.322-0.527-7.16-1.882c-1.467-0.07-2.943-0.108-4.43-0.108c-0.158,0-0.314,0.006-0.473,0.006
		c1.367,1.118,2.893,2.107,2.893,4.318c-2-1-5-1-7-1h1c-0.715-1.429-1.436-2.344-2.514-3.117c-1.225,0.081-2.439,0.194-3.65,0.323
		c-0.549,0.708-1.453,1.561-0.836,2.794c-5,0-8.104,4.331-3.104,8.331c2.892,1.807,2.025,5.33,3.586,4.735
		c1.129-0.431,3.048-3.849,3.692-5.11c0.929-1.818,1.448-4.316,1.825-6.956c6,3,7.857,1.128,13.857,1.128
		c1,1,7.156,2.497,8.156,3.497c5.963,4.331-7.719,2.978-9.719,4.978c1.369,0.912-1.875,1.782,6.584,1.021
		c2.111-0.189,2.641,0.764,3.729,2.939c-3.717,1.859-10.875,0.438-11.063,4.875c-0.107,2.537-3.955-0.845-5.857,1.438
		c0,1-1.455,3.438-1.455,4.438c-1.516,0.337-1.605,2.368-2.781,2.875c-3.078,1.328-4.225,2.646-4.969,5.141
		c-0.659,2.209-0.938,6.048,0.234,9.172c-2.58,0.001-2.805-3.824-5.042-4.758c-1.472-0.613-1.339-2.491-2.817-2.805
		c-1.481-0.313-5.25,1.245-6.694,1.313c-2.536,0.119-6.503-0.008-8.743,1.625c-1.586,1.156-2.508,3.025-3.844,5.125
		c-2,3-0.906,6.625,1.094,8.625c2.265,1.133,6.219,0.434,7.927-1.216c1.31-1.263,2.668-2.277,4.403-1.409c4,2-3.08,6.063-1.08,9.063
		c1,1,5.08,0.938,7.08,0.938c0,3-1,7,1,10c4.01,3.437,8.019,1.952,12.029,0.057c2.99-1.414,5.775-4.307,8.766-4.307
		c2.602,0.163,6.488,2.977,9.063,3.5c2.576,0.524,5.191-2.039,7.688-1.172c4.836,1.681,7.584,8.297,10.125,8.172
		c4.482-0.22,8.453,2.177,10.25,3.75c2.633,2.306,4,8.25,7.5,8.625c4.973,0.533,1.021,0.107,8.375,4.188
		c1.063,0.797,4.686,4.926,4.758,5.967c0.293-0.514,0.293-0.514,0,0c0.043,0.607-0.029,1.25-0.172,1.922
		c0.381,0.742-0.229,1.674,1.082,2.549c-1.576,1.051-1.4,2.061-2.545,3.471c-0.072,0.756-0.07,1.516,0.082,2.279c-2,0-3,3-3,3
		c0.295,2.125-1.066,2.908-1.115,2.977c-0.971,2.773-2.314,3.01-1.885,6.023c-2,0-3.455,3.375-3.455,4.375
		c-0.758,3.031-4.975,2.125-6.125,3.5c0.309,0.697-4.137,2.918-4.5,3.281c-0.859,0.172,0.016,3.758-0.688,4.094
		c-1.5,1.527-2.225,1.201-3.938,2.563c-0.928,1.225-1.496,2.068-2.5,3.406c1.857-4.375-1.441,3.023-2.625,2.906
		c-0.463,0.301-2.533-0.293-3,0c-2.063,1.438-3.014,3.563-2.625,3.563c-0.697,0.148-4.35,2.178-5,2.375
		c-2.838,1.734-4.346,1.65-7.107,3.063c-3.883,3.355-2.861,5.232-5.768,9.75c-1.254,1.951-2.33,5.58-3.686,7.484
		c-0.547,1.873-2.189-0.734-0.127,1.391c-5.35-4.459-4.59-9.879-3.063-15.563c-0.354,0.217-0.49-1.191-1.107-1.5
		c1.527-3.055,1.219-3.797,2.344-6.906c1.766-6.744,4.313-12.988,2.014-19.031c-1.688-4.438,2.309-7.045,0.375-10.5
		c-0.436,0.059-4.006-1.389-4.42-1.25c0,0.332-3.268-3.584-3.268-3.25c-1.583-2.773,0.094-1.453-1.615-4.414
		c-0.952-0.805-2.194-5.209-3.322-5.961c-2.969-4.375-2.447-1.404-3.594-4.652c-0.705-0.92-1.436-1.83-2.201-2.723
		c0.143-0.143,0.284-0.285,0.426-0.426c-0.627-0.68,2.423-3.891,1.4-4.23c0.655-0.984-1.921-1.521-1.391-2.5
		c-0.488-3.17,1.137-3.871,2.172-6.835c0.127-2.523-0.404-4.923-1.732-7.116c-2.057-1.728-4-3.68-5.947-5.499
		c-2.145-1.214-0.576-2.719-2.57-3.862c-1.613-0.926-2.078-1.674-3.625-2.656c-0.331-0.031-2.348-0.375-2.688-0.375
		c0-0.207-2.355-1.545-2.375-1.75c-1.578-1.035-3.011-1.043-4.563-2.266c-1.015-0.131-2.862,0.14-3.877-0.189
		c-0.954,0.548-0.422,0.024-1.561-0.545c-1.717-0.981-3.745-0.792-5.313-2c-1.353-0.19-1.334-1.201-2.688-0.75
		c0.209-1.465-1.756-4.161-2.625-9.219C45.895,53.679,43.435,44.92,42.673,44c-0.51-0.616,1.506,11.646,1.043,11.002
		c-0.754,0.007-1.066,1.994-1.574,1.486c-1.015-2.791-3.142-6.514-3.431-9.527c-0.388-1.943-0.556-3.828-0.514-5.648
		c0.069-3.011,1.688-6.019,2.866-8.656c0.914-2.045,1.173-3.798,2.708-5.595c1.642-1.922,2.173-2.621,4.479-4.235
		c0.051-0.051,1.529-1.189,1.57-1.244c0.163-0.571,0.27-1.185,0.275-1.8c-0.064-0.512-0.173-1.066-0.264-1.646
		C23.203,33.931,5.355,62.885,5.355,96c0,50.023,40.712,90.574,90.931,90.574c50.221,0,90.932-40.551,90.932-90.574
		C187.218,95.037,187.187,94.082,187.157,93.126z M84.707,11.75c0-1,1-2,2-2c-0.25,0-0.5,0-1,0c0.5,0,0.75,0,1,0s0.5,0,1,0
		C85.707,9.75,86.707,13.75,84.707,11.75z"/>
	
		<radialGradient id="SVGID_3_" cx="96.2832" cy="96" r="50" gradientTransform="matrix(0.1 0 0 0.1 86.6577 86.3999)" gradientUnits="userSpaceOnUse">
		<stop  offset="0" style="stop-color:#939598"/>
		<stop  offset="0.9606" style="stop-color:#6D6E71"/>
		<stop  offset="1" style="stop-color:#414042"/>
	</radialGradient>
	<circle fill="url(#SVGID_3_)" cx="96.286" cy="96" r="5"/>
	
		<radialGradient id="SVGID_4_" cx="96.2832" cy="96" r="50" gradientTransform="matrix(0.1 0 0 0.1 86.6577 86.3999)" gradientUnits="userSpaceOnUse">
		<stop  offset="0" style="stop-color:#F9F06E"/>
		<stop  offset="1" style="stop-color:#3A381B"/>
	</radialGradient>
	<circle fill="url(#SVGID_4_)" cx="96.286" cy="96" r="5"/>
	<radialGradient id="SVGID_5_" cx="99.2871" cy="52.6655" r="30.7154" gradientUnits="userSpaceOnUse">
		<stop  offset="0" style="stop-color:#7A7635"/>
		<stop  offset="1" style="stop-color:#3A381B"/>
	</radialGradient>
	<polygon fill="url(#SVGID_5_)" points="96.287,96 96.286,9.333 96.288,9.331 102.287,23.869 100.288,78.555 101.288,90.185 	"/>
	<polygon opacity="0.5" fill="#58595B" points="96.285,96 96.286,9.333 96.284,9.331 90.285,23.869 92.284,78.555 91.284,90.185 	
		"/>
	<radialGradient id="SVGID_6_" cx="93.7852" cy="52.6655" r="30.6931" gradientUnits="userSpaceOnUse">
		<stop  offset="0" style="stop-color:#939598"/>
		<stop  offset="1" style="stop-color:#6D6E71"/>
	</radialGradient>
	<polygon fill="url(#SVGID_6_)" points="96.285,96 96.286,9.333 96.284,9.331 91.284,23.869 93.284,78.555 92.284,90.185 	"/>
	<radialGradient id="SVGID_7_" cx="98.7852" cy="52.6655" r="30.6931" gradientUnits="userSpaceOnUse">
		<stop  offset="0" style="stop-color:#F9F06E"/>
		<stop  offset="1" style="stop-color:#7A7635"/>
	</radialGradient>
	<polygon fill="url(#SVGID_7_)" points="96.285,96 96.286,9.333 96.286,9.331 101.286,23.869 99.286,78.555 100.286,90.185 	"/>
	<polygon points="96.285,96 96.286,9.333 96.284,9.331 90.285,23.869 92.284,78.555 91.284,90.185 	"/>
	<radialGradient id="SVGID_8_" cx="93.7852" cy="52.6655" r="30.6931" gradientUnits="userSpaceOnUse">
		<stop  offset="0" style="stop-color:#7A7635"/>
		<stop  offset="1" style="stop-color:#3A381B"/>
	</radialGradient>
	<polygon fill="url(#SVGID_8_)" points="96.285,96 96.286,9.333 96.284,9.331 91.284,23.869 93.284,78.555 92.284,90.185 	"/>
	<radialGradient id="SVGID_9_" cx="74.9512" cy="121.2061" r="23.3494" gradientUnits="userSpaceOnUse">
		<stop  offset="0" style="stop-color:#7A7635"/>
		<stop  offset="1" style="stop-color:#3A381B"/>
	</radialGradient>
	<polygon fill="url(#SVGID_9_)" points="96.219,96.001 53.617,146.407 53.617,146.41 67.583,139.179 88.014,111.908 96.285,103.672 
			"/>
	<polygon opacity="0.5" fill="#58595B" points="96.218,96 53.617,146.407 53.614,146.408 58.417,131.432 81.901,106.742 
		88.645,97.214 	"/>
	
		<radialGradient id="SVGID_10_" cx="95.6592" cy="57.1211" r="23.4008" gradientTransform="matrix(0.7638 0.6455 0.6455 -0.7638 -36.9296 101.4722)" gradientUnits="userSpaceOnUse">
		<stop  offset="0" style="stop-color:#939598"/>
		<stop  offset="1" style="stop-color:#6D6E71"/>
	</radialGradient>
	<polygon fill="url(#SVGID_10_)" points="96.218,96 53.617,146.407 53.614,146.408 59.18,132.077 82.665,107.387 89.408,97.859 	"/>
	
		<radialGradient id="SVGID_11_" cx="100.6592" cy="57.1211" r="23.4007" gradientTransform="matrix(0.7638 0.6455 0.6455 -0.7638 -36.9296 101.4722)" gradientUnits="userSpaceOnUse">
		<stop  offset="0" style="stop-color:#F9F06E"/>
		<stop  offset="1" style="stop-color:#7A7635"/>
	</radialGradient>
	<polygon fill="url(#SVGID_11_)" points="96.218,96 53.617,146.407 53.616,146.409 66.818,138.533 87.249,111.262 95.52,103.024 	
		"/>
	<polygon points="96.218,96 53.617,146.407 53.614,146.408 58.417,131.432 81.901,106.742 88.645,97.214 	"/>
	<radialGradient id="SVGID_12_" cx="74.916" cy="121.2041" r="23.3346" gradientUnits="userSpaceOnUse">
		<stop  offset="0" style="stop-color:#7A7635"/>
		<stop  offset="1" style="stop-color:#3A381B"/>
	</radialGradient>
	<polygon fill="url(#SVGID_12_)" points="96.218,96 53.617,146.407 53.614,146.408 59.18,132.077 82.665,107.387 89.408,97.859 	"/>
</g>
<g id="Layer_3_copy">
	<g opacity="0.5">
		<g>
			<g>
				<path fill="#58595B" d="M142.026,18.071c1.018,0.603,2.025,1.223,3.018,1.863C144.052,19.293,143.044,18.674,142.026,18.071z"/>
			</g>
		</g>
		<g>
			<g>
				<path fill="#58595B" d="M145.276,20.086c2.057,1.336,4.055,2.753,5.992,4.246C149.331,22.839,147.333,21.422,145.276,20.086z"/>
			</g>
		</g>
		<g>
			<g>
				<path fill="#58595B" d="M151.474,24.49c0.932,0.722,1.848,1.464,2.75,2.221C153.321,25.954,152.405,25.212,151.474,24.49z"/>
			</g>
		</g>
		<g>
			<g>
				<path fill="#58595B" d="M138.575,16.128c1.043,0.557,2.072,1.135,3.092,1.731C140.647,17.264,139.618,16.686,138.575,16.128z"/>
			</g>
		</g>
		<g>
			<g>
				<path fill="#58595B" d="M124.292,10.009c1.133,0.374,2.254,0.77,3.367,1.187C126.546,10.779,125.425,10.383,124.292,10.009z"/>
			</g>
		</g>
		<g>
			<g>
				<path fill="#58595B" d="M100.204,179.795c-0.021-0.008-0.041-0.014-0.061-0.023c0.252,0.244,0.512,0.488,0.799,0.727
					C100.599,180.143,100.364,179.93,100.204,179.795z"/>
			</g>
		</g>
		<g>
			<g>
				<path fill="#58595B" d="M154.544,26.98c0.891,0.755,1.768,1.526,2.629,2.314C156.312,28.506,155.435,27.736,154.544,26.98z"/>
			</g>
		</g>
		<g>
			<g>
				<path fill="#58595B" d="M131.61,12.782c2.277,0.978,4.508,2.046,6.684,3.199C136.118,14.828,133.888,13.759,131.61,12.782z"/>
			</g>
		</g>
		<g>
			<g>
				<path fill="#58595B" d="M128.06,11.348c1.123,0.427,2.236,0.873,3.338,1.342C130.296,12.22,129.183,11.774,128.06,11.348z"/>
			</g>
		</g>
		<g>
			<g>
				<path fill="#58595B" d="M169.94,43.738c-1.408,1.781-0.857,4.436-0.092,7.091c0.742,2.569,1.682,5.14,1.236,6.919
					c0,1,0.982,5.758,1.605,6.755c1.121,1.793,1.576,3.793,2.072,5.739c0.902,3.534,1.938,6.89,7.322,8.506c1,0-1,2-1,4
					c2-1,4.207,7.807,5.451,10.376c0.029,0.917,0.057,1.834,0.059,2.757C186.569,76.461,180.409,58.474,169.94,43.738z"/>
			</g>
		</g>
		<g>
			<g>
				<path fill="#58595B" d="M169.907,43.693c-0.676-0.952-1.375-1.888-2.088-2.812C168.532,41.805,169.231,42.741,169.907,43.693z"
					/>
			</g>
		</g>
		<g>
			<g>
				<path fill="#58595B" d="M165.376,37.847c0.734,0.873,1.453,1.759,2.154,2.659C166.829,39.605,166.11,38.719,165.376,37.847z"/>
			</g>
		</g>
		<g>
			<g>
				<path fill="#58595B" d="M162.753,34.861c0.787,0.856,1.555,1.73,2.309,2.616C164.308,36.591,163.54,35.717,162.753,34.861z"/>
			</g>
		</g>
		<g>
			<g>
				<path fill="#58595B" d="M120.38,8.812c-6.496-1.823-13.287-2.945-20.285-3.279c1.838,1.354,5.08,1.014,7.16,1.882
					c2.07,0.864,1.85,1.898,6.438,3.123c0.781,0.209,4.568,1.25,7.094,1.875C120.356,10.266,119.782,10.011,120.38,8.812z"/>
			</g>
		</g>
		<g>
			<g>
				<path fill="#58595B" d="M99.999,179.639c-0.133-0.08-0.041,0.049,0.145,0.133C100.097,179.727,100.044,179.684,99.999,179.639z"
					/>
			</g>
		</g>
		<g>
			<g>
				<path fill="#58595B" d="M98.085,9.749c0-2.211-1.525-3.2-2.892-4.318c-1.888,0.01-3.762,0.079-5.62,0.201
					c1.078,0.773,1.799,1.688,2.514,3.117h-1C93.085,8.749,96.085,8.749,98.085,9.749z"/>
			</g>
		</g>
		<g>
			<g>
				<path fill="#58595B" d="M120.384,8.813c1.193,0.335,2.375,0.698,3.547,1.08C122.759,9.511,121.577,9.148,120.384,8.813z"/>
			</g>
		</g>
		<g>
			<g>
				<path fill="#58595B" d="M97.896,5.453c0.732,0.018,1.463,0.045,2.191,0.08C99.358,5.498,98.628,5.47,97.896,5.453z"/>
			</g>
		</g>
		<g>
			<g>
				<path fill="#58595B" d="M162.577,34.673c-1.648-1.783-3.367-3.498-5.152-5.145C159.21,31.174,160.929,32.891,162.577,34.673z"/>
			</g>
		</g>
		<g>
			<g>
				<path fill="#58595B" d="M11.779,60.991c-0.343,0.814-0.671,1.636-0.99,2.462C11.108,62.626,11.436,61.805,11.779,60.991z"/>
			</g>
		</g>
		<g>
			<g>
				<path fill="#58595B" d="M12.94,58.357c-0.397,0.864-0.782,1.734-1.152,2.613C12.158,60.091,12.542,59.221,12.94,58.357z"/>
			</g>
		</g>
		<g>
			<g>
				<path fill="#58595B" d="M8.726,69.391c-0.245,0.793-0.477,1.592-0.699,2.394C8.25,70.982,8.481,70.184,8.726,69.391z"/>
			</g>
		</g>
		<g>
			<g>
				<path fill="#58595B" d="M9.641,66.585c-0.3,0.871-0.589,1.746-0.862,2.628C9.052,68.331,9.341,67.455,9.641,66.585z"/>
			</g>
		</g>
		<g>
			<g>
				<path fill="#58595B" d="M10.585,63.984c-0.271,0.714-0.533,1.432-0.786,2.154C10.053,65.416,10.315,64.698,10.585,63.984z"/>
			</g>
		</g>
		<g>
			<g>
				<path fill="#58595B" d="M95.666,186.572c-1.569,0-3.129-0.039-4.679-0.117C92.537,186.533,94.096,186.572,95.666,186.572z"/>
			</g>
		</g>
		<g>
			<g>
				<path fill="#58595B" d="M90.987,186.455c-19.373-0.979-37.146-7.996-51.461-19.201C53.84,178.459,71.614,185.477,90.987,186.455
					z"/>
			</g>
		</g>
		<g>
			<g>
				<path fill="#58595B" d="M14.138,55.856c-0.381,0.766-0.752,1.537-1.111,2.314C13.386,57.393,13.757,56.622,14.138,55.856z"/>
			</g>
		</g>
		<g>
			<g>
				<path fill="#58595B" d="M14.304,55.523c1.271-2.527,2.654-4.987,4.148-7.373C16.958,50.537,15.574,52.996,14.304,55.523z"/>
			</g>
		</g>
		<g>
			<g>
				<path fill="#58595B" d="M7.836,72.485c-0.182,0.674-0.354,1.351-0.521,2.03C7.482,73.835,7.655,73.159,7.836,72.485z"/>
			</g>
		</g>
		<g>
			<g>
				<path fill="#58595B" d="M4.781,93.234c-0.026,0.879-0.043,1.761-0.044,2.646C4.738,94.995,4.754,94.113,4.781,93.234z"/>
			</g>
		</g>
		<g>
			<g>
				<path fill="#58595B" d="M5.178,87.034c-0.081,0.817-0.149,1.638-0.208,2.461C5.029,88.672,5.097,87.851,5.178,87.034z"/>
			</g>
		</g>
		<g>
			<g>
				<path fill="#58595B" d="M4.914,90.387c-0.04,0.65-0.072,1.301-0.099,1.955C4.841,91.688,4.874,91.038,4.914,90.387z"/>
			</g>
		</g>
		<g>
			<g>
				<g>
					<path fill="#58595B" d="M40.202,24.235c-0.667,0.512-1.325,1.033-1.976,1.563C38.877,25.269,39.536,24.747,40.202,24.235z"/>
					<path fill="#58595B" d="M40.352,24.122c-0.05,0.038-0.1,0.075-0.15,0.113C40.252,24.197,40.302,24.16,40.352,24.122z"/>
					<path fill="#58595B" d="M38.087,25.909c-0.651,0.532-1.295,1.073-1.931,1.622C36.793,26.982,37.436,26.44,38.087,25.909z"/>
					<path fill="#58595B" d="M38.226,25.798c-0.046,0.038-0.093,0.074-0.139,0.111C38.133,25.872,38.18,25.835,38.226,25.798z"/>
					<path fill="#58595B" d="M36.156,27.531c-0.044,0.039-0.089,0.076-0.134,0.114C36.067,27.606,36.112,27.569,36.156,27.531z"/>
					<path fill="#58595B" d="M34.141,29.323c-0.043,0.04-0.087,0.078-0.129,0.117C34.054,29.4,34.098,29.362,34.141,29.323z"/>
					<path fill="#58595B" d="M30.282,33.071c-0.043,0.044-0.088,0.088-0.131,0.133C30.194,33.159,30.239,33.116,30.282,33.071z"/>
					<path fill="#58595B" d="M36.022,27.645c-0.635,0.55-1.262,1.11-1.882,1.678C34.761,28.755,35.387,28.195,36.022,27.645z"/>
					<path fill="#58595B" d="M34.011,29.44c-0.618,0.568-1.227,1.145-1.829,1.73C32.785,30.585,33.393,30.008,34.011,29.44z"/>
					<path fill="#58595B" d="M42.366,22.625c-0.679,0.49-1.35,0.99-2.014,1.498C41.017,23.614,41.688,23.114,42.366,22.625z"/>
					<path fill="#58595B" d="M46.839,19.593c-0.704,0.447-1.399,0.904-2.09,1.369C45.44,20.497,46.136,20.04,46.839,19.593z"/>
					<path fill="#58595B" d="M49.145,18.177c-0.712,0.423-1.417,0.856-2.116,1.298C47.728,19.033,48.433,18.6,49.145,18.177z"/>
					<path fill="#58595B" d="M47.029,19.475c-0.063,0.04-0.126,0.079-0.189,0.119C46.902,19.553,46.966,19.514,47.029,19.475z"/>
					<path fill="#58595B" d="M42.529,22.508c-0.054,0.039-0.109,0.077-0.163,0.116C42.42,22.585,42.475,22.547,42.529,22.508z"/>
					<path fill="#58595B" d="M44.75,20.962c-0.056,0.038-0.112,0.075-0.168,0.112C44.637,21.037,44.694,21,44.75,20.962z"/>
					<path fill="#58595B" d="M44.582,21.075c-0.691,0.468-1.375,0.947-2.052,1.434C43.207,22.021,43.891,21.543,44.582,21.075z"/>
					<path fill="#58595B" d="M21.529,43.555c-0.485,0.679-0.959,1.366-1.425,2.058C20.57,44.921,21.044,44.234,21.529,43.555z"/>
					<path fill="#58595B" d="M30.282,33.071c0.583-0.6,1.172-1.193,1.771-1.777C31.455,31.878,30.865,32.471,30.282,33.071z"/>
					<path fill="#58595B" d="M23.131,41.383c-0.501,0.66-0.992,1.327-1.476,2.001C22.139,42.71,22.629,42.042,23.131,41.383z"/>
					<path fill="#58595B" d="M19.992,45.775c-0.501,0.747-0.991,1.502-1.47,2.265C19.001,47.277,19.491,46.522,19.992,45.775z"/>
					<path fill="#58595B" d="M21.655,43.384c-0.041,0.058-0.084,0.114-0.126,0.171C21.57,43.498,21.614,43.441,21.655,43.384z"/>
					<path fill="#58595B" d="M20.104,45.613c-0.037,0.055-0.075,0.107-0.112,0.162C20.029,45.721,20.067,45.668,20.104,45.613z"/>
					<path fill="#58595B" d="M30.151,33.204c-0.578,0.599-1.147,1.206-1.709,1.82C29.004,34.41,29.572,33.803,30.151,33.204z"/>
					<path fill="#58595B" d="M49.145,18.177c0.023-0.014,0.046-0.027,0.069-0.041c0,0,0-0.001,0-0.001
						C49.19,18.148,49.168,18.163,49.145,18.177z"/>
					<path fill="#58595B" d="M32.053,31.294c0.042-0.042,0.086-0.083,0.129-0.124C32.14,31.211,32.096,31.252,32.053,31.294z"/>
					<path fill="#58595B" d="M160.548,110.998c-1.311-0.875-0.701-1.807-1.082-2.549c0.143-0.672,0.215-1.314,0.172-1.922
						c-0.072-1.041-3.695-5.17-4.758-5.967c-7.354-4.08-3.402-3.654-8.375-4.187c-3.5-0.375-4.867-6.319-7.5-8.625
						c-1.797-1.573-5.768-3.97-10.25-3.75c-2.541,0.125-5.289-6.491-10.125-8.172c-2.496-0.867-5.111,1.696-7.688,1.172
						c-2.574-0.523-6.461-3.337-9.063-3.5c-2.99,0-5.775,2.893-8.765,4.307c-4.01,1.896-8.019,3.38-12.028-0.057c-2-3-1-7-1-10
						c-2,0-6.08,0.063-7.08-0.938c-2-3,5.08-7.063,1.08-9.063c-1.735-0.868-3.094,0.146-4.403,1.409
						c-1.708,1.649-5.662,2.349-7.927,1.216c-2-2-3.094-5.625-1.094-8.625c1.336-2.1,2.258-3.969,3.844-5.125
						c2.24-1.633,6.207-1.506,8.743-1.625c1.444-0.067,5.213-1.626,6.694-1.313c1.479,0.313,1.346,2.191,2.817,2.805
						c2.237,0.934,2.462,4.759,5.042,4.758c-1.172-3.124-0.894-6.963-0.234-9.172c0.744-2.494,1.891-3.813,4.969-5.141
						c1.175-0.507,1.265-2.538,2.78-2.875c0-1,1.455-3.438,1.455-4.438c1.902-2.282,5.75,1.1,5.857-1.438
						c0.188-4.438,7.346-3.016,11.063-4.875c-1.088-2.176-1.617-3.129-3.729-2.939c-8.459,0.762-5.215-0.108-6.584-1.021
						c2-2,15.682-0.646,9.719-4.978c-1-1-7.156-2.497-8.156-3.497c-6,0-7.857,1.872-13.856-1.128
						c-0.377,2.64-0.896,5.138-1.825,6.956c-0.645,1.262-2.563,4.68-3.692,5.11c-1.561,0.595-0.694-2.929-3.586-4.735
						c-5-4-1.896-8.331,3.104-8.331c-0.617-1.233,0.287-2.086,0.836-2.794c1.21-0.129,2.424-0.242,3.647-0.323
						C74.89,6.6,61.168,11.044,49.214,18.136c0.091,0.58,0.199,1.134,0.263,1.645c-0.006,0.615-0.112,1.229-0.275,1.8
						c-0.041,0.055-1.52,1.193-1.57,1.244c-2.307,1.614-2.838,2.313-4.479,4.235c-1.535,1.797-1.794,3.55-2.708,5.595
						c-1.178,2.638-2.797,5.646-2.866,8.656c-0.042,1.82,0.126,3.705,0.514,5.648c0.289,3.014,2.416,6.736,3.431,9.527
						c0.508,0.508,0.82-1.479,1.574-1.486c0.463,0.645-1.553-11.618-1.043-11.002c0.762,0.92,3.222,9.679,4.078,10.531
						c0.869,5.058,2.834,7.754,2.625,9.219c1.354-0.451,1.335,0.56,2.688,0.75c1.567,1.208,3.596,1.019,5.313,2
						c1.139,0.569,0.606,1.093,1.561,0.545c1.015,0.329,2.862,0.059,3.877,0.189c1.552,1.223,2.984,1.23,4.563,2.266
						c0.02,0.205,2.375,1.543,2.375,1.75c0.34,0,2.356,0.344,2.688,0.375c1.547,0.982,2.012,1.73,3.625,2.656
						c1.994,1.144,0.426,2.648,2.57,3.862c1.947,1.819,3.891,3.771,5.947,5.499c1.328,2.193,1.859,4.593,1.732,7.116
						c-1.035,2.964-2.66,3.665-2.172,6.834c-0.53,0.979,2.046,1.516,1.391,2.5c1.022,0.34-2.027,3.551-1.4,4.23
						c-0.142,0.141-0.283,0.283-0.426,0.426c0.766,0.893,1.496,1.803,2.201,2.723c1.146,3.248,0.625,0.277,3.594,4.652
						c1.128,0.752,2.37,5.156,3.322,5.961c1.708,2.961,0.031,1.641,1.614,4.414c0-0.334,3.267,3.582,3.267,3.25
						c0.414-0.139,3.984,1.309,4.42,1.25c1.934,3.455-2.063,6.063-0.375,10.5c2.299,6.043-0.248,12.287-2.014,19.031
						c-1.125,3.109-0.816,3.852-2.344,6.906c0.617,0.309,0.754,1.717,1.107,1.5c-1.43,5.324-2.186,10.416,2.119,14.703
						c0.043,0.025,0.111,0.078,0.205,0.156c0.262,0.092,0.648,0.055,0.865-0.688c1.355-1.904,2.432-5.533,3.686-7.484
						c2.906-4.518,1.885-6.395,5.768-9.75c2.762-1.412,4.27-1.328,7.107-3.063c0.65-0.197,4.303-2.227,5-2.375
						c-0.389,0,0.563-2.125,2.625-3.563c0.467-0.293,2.537,0.301,3,0c1.184,0.117,4.482-7.281,2.625-2.906
						c1.004-1.338,1.572-2.182,2.5-3.406c1.713-1.361,2.438-1.035,3.938-2.563c0.703-0.336-0.172-3.922,0.688-4.094
						c0.363-0.363,4.809-2.584,4.5-3.281c1.15-1.375,5.367-0.469,6.125-3.5c0-1,1.455-4.375,3.455-4.375
						c-0.43-3.014,0.914-3.25,1.885-6.023c0.049-0.068,1.41-0.852,1.115-2.977c0,0,1-3,3-3c-0.152-0.764-0.154-1.523-0.082-2.279
						C159.147,113.059,158.972,112.049,160.548,110.998z"/>
					<path fill="#58595B" d="M26.654,37.038c-0.044,0.051-0.089,0.101-0.133,0.152C26.564,37.138,26.61,37.088,26.654,37.038z"/>
					<path fill="#58595B" d="M23.256,41.223c-0.042,0.054-0.084,0.106-0.125,0.16C23.172,41.329,23.215,41.276,23.256,41.223z"/>
					<path fill="#58595B" d="M28.442,35.024c-0.045,0.049-0.091,0.097-0.136,0.146C28.351,35.121,28.397,35.073,28.442,35.024z"/>
					<path fill="#58595B" d="M28.306,35.17c-0.56,0.615-1.109,1.238-1.652,1.867C27.196,36.408,27.746,35.785,28.306,35.17z"/>
					<path fill="#58595B" d="M26.521,37.189c-0.538,0.627-1.066,1.263-1.587,1.904C25.455,38.452,25.982,37.816,26.521,37.189z"/>
					<path fill="#58595B" d="M24.794,39.262c-0.521,0.646-1.033,1.3-1.538,1.961C23.761,40.562,24.272,39.908,24.794,39.262z"/>
					<path fill="#58595B" d="M24.933,39.094c-0.045,0.057-0.093,0.111-0.139,0.168C24.84,39.205,24.887,39.15,24.933,39.094z"/>
				</g>
			</g>
		</g>
		<g>
			<g>
				<path fill="#58595B" d="M86.086,9.749c-1,0-2,1-2,2c2,2,1-2,3-2C86.586,9.749,86.336,9.749,86.086,9.749z"/>
			</g>
		</g>
		<g>
			<g>
				<path fill="#58595B" d="M6.514,78.099c-0.159,0.791-0.307,1.585-0.444,2.383C6.208,79.684,6.355,78.889,6.514,78.099z"/>
			</g>
		</g>
		<g>
			<g>
				<path fill="#58595B" d="M5.52,84.074c-0.117,0.893-0.227,1.789-0.317,2.689C5.293,85.863,5.402,84.967,5.52,84.074z"/>
			</g>
		</g>
		<g>
			<g>
				<path fill="#58595B" d="M7.154,75.175c-0.208,0.878-0.405,1.761-0.587,2.649C6.749,76.937,6.946,76.054,7.154,75.175z"/>
			</g>
		</g>
		<g>
			<g>
				<path fill="#58595B" d="M5.933,81.301c-0.106,0.653-0.207,1.309-0.3,1.966C5.726,82.609,5.827,81.954,5.933,81.301z"/>
			</g>
		</g>
	</g>
</g>
<g id="Layer_3" display="none">
	<ellipse display="inline" opacity="0.5" fill="#58595B" cx="96.286" cy="96" rx="90.931" ry="90.574"/>
</g>
<g id="Clock">
	
		<radialGradient id="SVGID_13_" cx="96.2832" cy="96" r="50" gradientTransform="matrix(0.1 0 0 0.1 86.6577 86.3999)" gradientUnits="userSpaceOnUse">
		<stop  offset="0" style="stop-color:#939598"/>
		<stop  offset="0.9606" style="stop-color:#6D6E71"/>
		<stop  offset="1" style="stop-color:#414042"/>
	</radialGradient>
	<circle fill="url(#SVGID_13_)" cx="96.286" cy="96" r="5"/>
	
		<radialGradient id="SVGID_14_" cx="96.2832" cy="96" r="50" gradientTransform="matrix(0.1 0 0 0.1 86.6577 86.3999)" gradientUnits="userSpaceOnUse">
		<stop  offset="0" style="stop-color:#939598"/>
		<stop  offset="0.9606" style="stop-color:#6D6E71"/>
		<stop  offset="1" style="stop-color:#414042"/>
	</radialGradient>
	<circle fill="url(#SVGID_14_)" cx="96.286" cy="96" r="5"/>
	<g>
		<polygon fill="#808285" points="96.287,96 96.286,9.333 96.288,9.331 102.287,23.869 100.288,78.555 101.288,90.185 		"/>
		<polygon opacity="0.5" fill="#58595B" points="96.285,96 96.286,9.333 96.284,9.331 90.285,23.869 92.284,78.555 91.284,90.185 		
			"/>
		<radialGradient id="SVGID_15_" cx="93.7852" cy="52.6655" r="30.6931" gradientUnits="userSpaceOnUse">
			<stop  offset="0" style="stop-color:#939598"/>
			<stop  offset="1" style="stop-color:#6D6E71"/>
		</radialGradient>
		<polygon fill="url(#SVGID_15_)" points="96.285,96 96.286,9.333 96.284,9.331 91.284,23.869 93.284,78.555 92.284,90.185 		"/>
		<radialGradient id="SVGID_16_" cx="98.7852" cy="52.6655" r="30.6931" gradientUnits="userSpaceOnUse">
			<stop  offset="0" style="stop-color:#BCBEC0"/>
			<stop  offset="1" style="stop-color:#939598"/>
		</radialGradient>
		<polygon fill="url(#SVGID_16_)" points="96.285,96 96.286,9.333 96.286,9.331 101.286,23.869 99.286,78.555 100.286,90.185 		"/>
		<polygon fill="#58595B" points="96.285,96 96.286,9.333 96.284,9.331 90.285,23.869 92.284,78.555 91.284,90.185 		"/>
		<radialGradient id="SVGID_17_" cx="93.7852" cy="52.6655" r="30.6931" gradientUnits="userSpaceOnUse">
			<stop  offset="0" style="stop-color:#939598"/>
			<stop  offset="1" style="stop-color:#6D6E71"/>
		</radialGradient>
		<polygon fill="url(#SVGID_17_)" points="96.285,96 96.286,9.333 96.284,9.331 91.284,23.869 93.284,78.555 92.284,90.185 		"/>
	</g>
	<g>
		<polygon fill="#808285" points="96.219,96.001 53.617,146.407 53.617,146.41 67.583,139.179 88.014,111.908 96.285,103.672 		"/>
		<polygon opacity="0.5" fill="#58595B" points="96.218,96 53.617,146.407 53.614,146.408 58.417,131.432 81.901,106.742 
			88.645,97.214 		"/>
		
			<radialGradient id="SVGID_18_" cx="95.6592" cy="57.1211" r="23.4008" gradientTransform="matrix(0.7638 0.6455 0.6455 -0.7638 -36.9296 101.4722)" gradientUnits="userSpaceOnUse">
			<stop  offset="0" style="stop-color:#939598"/>
			<stop  offset="1" style="stop-color:#6D6E71"/>
		</radialGradient>
		<polygon fill="url(#SVGID_18_)" points="96.218,96 53.617,146.407 53.614,146.408 59.18,132.077 82.665,107.387 89.408,97.859 		
			"/>
		
			<radialGradient id="SVGID_19_" cx="100.6592" cy="57.1211" r="23.4007" gradientTransform="matrix(0.7638 0.6455 0.6455 -0.7638 -36.9296 101.4722)" gradientUnits="userSpaceOnUse">
			<stop  offset="0" style="stop-color:#BCBEC0"/>
			<stop  offset="1" style="stop-color:#939598"/>
		</radialGradient>
		<polygon fill="url(#SVGID_19_)" points="96.218,96 53.617,146.407 53.616,146.409 66.818,138.533 87.249,111.262 95.52,103.024 		
			"/>
		<polygon fill="#58595B" points="96.218,96 53.617,146.407 53.614,146.408 58.417,131.432 81.901,106.742 88.645,97.214 		"/>
		
			<radialGradient id="SVGID_20_" cx="95.6592" cy="57.1211" r="23.4008" gradientTransform="matrix(0.7638 0.6455 0.6455 -0.7638 -36.9296 101.4722)" gradientUnits="userSpaceOnUse">
			<stop  offset="0" style="stop-color:#939598"/>
			<stop  offset="1" style="stop-color:#6D6E71"/>
		</radialGradient>
		<polygon fill="url(#SVGID_20_)" points="96.218,96 53.617,146.407 53.614,146.408 59.18,132.077 82.665,107.387 89.408,97.859 		
			"/>
	</g>
	
		<radialGradient id="SVGID_21_" cx="96.2832" cy="96" r="50" gradientTransform="matrix(0.1 0 0 0.1 86.6577 86.3999)" gradientUnits="userSpaceOnUse">
		<stop  offset="0" style="stop-color:#939598"/>
		<stop  offset="0.9606" style="stop-color:#6D6E71"/>
		<stop  offset="1" style="stop-color:#414042"/>
	</radialGradient>
	<circle fill="url(#SVGID_21_)" cx="96.286" cy="96" r="5"/>
	
		<radialGradient id="SVGID_22_" cx="96.2832" cy="96" r="50" gradientTransform="matrix(0.1 0 0 0.1 86.6577 86.3999)" gradientUnits="userSpaceOnUse">
		<stop  offset="0" style="stop-color:#F9F06E"/>
		<stop  offset="1" style="stop-color:#3A381B"/>
	</radialGradient>
	<circle fill="url(#SVGID_22_)" cx="96.286" cy="96" r="5"/>
	<radialGradient id="SVGID_23_" cx="99.2871" cy="52.6655" r="30.7154" gradientUnits="userSpaceOnUse">
		<stop  offset="0" style="stop-color:#7A7635"/>
		<stop  offset="1" style="stop-color:#3A381B"/>
	</radialGradient>
	<polygon fill="url(#SVGID_23_)" points="96.287,96 96.286,9.333 96.288,9.331 102.287,23.869 100.288,78.555 101.288,90.185 	"/>
	<polygon opacity="0.5" fill="#58595B" points="96.285,96 96.286,9.333 96.284,9.331 90.285,23.869 92.284,78.555 91.284,90.185 	
		"/>
	<radialGradient id="SVGID_24_" cx="93.7852" cy="52.6655" r="30.6931" gradientUnits="userSpaceOnUse">
		<stop  offset="0" style="stop-color:#939598"/>
		<stop  offset="1" style="stop-color:#6D6E71"/>
	</radialGradient>
	<polygon fill="url(#SVGID_24_)" points="96.285,96 96.286,9.333 96.284,9.331 91.284,23.869 93.284,78.555 92.284,90.185 	"/>
	<radialGradient id="SVGID_25_" cx="98.7852" cy="52.6655" r="30.6931" gradientUnits="userSpaceOnUse">
		<stop  offset="0" style="stop-color:#F9F06E"/>
		<stop  offset="1" style="stop-color:#7A7635"/>
	</radialGradient>
	<polygon fill="url(#SVGID_25_)" points="96.285,96 96.286,9.333 96.286,9.331 101.286,23.869 99.286,78.555 100.286,90.185 	"/>
	<polygon points="96.285,96 96.286,9.333 96.284,9.331 90.285,23.869 92.284,78.555 91.284,90.185 	"/>
	<radialGradient id="SVGID_26_" cx="93.7852" cy="52.6655" r="30.6931" gradientUnits="userSpaceOnUse">
		<stop  offset="0" style="stop-color:#7A7635"/>
		<stop  offset="1" style="stop-color:#3A381B"/>
	</radialGradient>
	<polygon fill="url(#SVGID_26_)" points="96.285,96 96.286,9.333 96.284,9.331 91.284,23.869 93.284,78.555 92.284,90.185 	"/>
	<radialGradient id="SVGID_27_" cx="74.9512" cy="121.2061" r="23.3494" gradientUnits="userSpaceOnUse">
		<stop  offset="0" style="stop-color:#7A7635"/>
		<stop  offset="1" style="stop-color:#3A381B"/>
	</radialGradient>
	<polygon fill="url(#SVGID_27_)" points="96.219,96.001 53.617,146.407 53.617,146.41 67.583,139.179 88.014,111.908 
		96.285,103.672 	"/>
	<polygon opacity="0.5" fill="#58595B" points="96.218,96 53.617,146.407 53.614,146.408 58.417,131.432 81.901,106.742 
		88.645,97.214 	"/>
	
		<radialGradient id="SVGID_28_" cx="95.6592" cy="57.1211" r="23.4008" gradientTransform="matrix(0.7638 0.6455 0.6455 -0.7638 -36.9296 101.4722)" gradientUnits="userSpaceOnUse">
		<stop  offset="0" style="stop-color:#939598"/>
		<stop  offset="1" style="stop-color:#6D6E71"/>
	</radialGradient>
	<polygon fill="url(#SVGID_28_)" points="96.218,96 53.617,146.407 53.614,146.408 59.18,132.077 82.665,107.387 89.408,97.859 	"/>
	
		<radialGradient id="SVGID_29_" cx="100.6592" cy="57.1211" r="23.4007" gradientTransform="matrix(0.7638 0.6455 0.6455 -0.7638 -36.9296 101.4722)" gradientUnits="userSpaceOnUse">
		<stop  offset="0" style="stop-color:#F9F06E"/>
		<stop  offset="1" style="stop-color:#7A7635"/>
	</radialGradient>
	<polygon fill="url(#SVGID_29_)" points="96.218,96 53.617,146.407 53.616,146.409 66.818,138.533 87.249,111.262 95.52,103.024 	
		"/>
	<polygon points="96.218,96 53.617,146.407 53.614,146.408 58.417,131.432 81.901,106.742 88.645,97.214 	"/>
	<radialGradient id="SVGID_30_" cx="74.916" cy="121.2041" r="23.3346" gradientUnits="userSpaceOnUse">
		<stop  offset="0" style="stop-color:#7A7635"/>
		<stop  offset="1" style="stop-color:#3A381B"/>
	</radialGradient>
	<polygon fill="url(#SVGID_30_)" points="96.218,96 53.617,146.407 53.614,146.408 59.18,132.077 82.665,107.387 89.408,97.859 	"/>
	
		<radialGradient id="SVGID_31_" cx="96.2832" cy="96" r="50" gradientTransform="matrix(0.1 0 0 0.1 86.6577 86.3999)" gradientUnits="userSpaceOnUse">
		<stop  offset="0" style="stop-color:#939598"/>
		<stop  offset="0.9606" style="stop-color:#6D6E71"/>
		<stop  offset="1" style="stop-color:#414042"/>
	</radialGradient>
	<circle fill="url(#SVGID_31_)" cx="96.286" cy="96" r="5"/>
	
		<radialGradient id="SVGID_32_" cx="96.2832" cy="96" r="50" gradientTransform="matrix(0.1 0 0 0.1 86.6577 86.3999)" gradientUnits="userSpaceOnUse">
		<stop  offset="0" style="stop-color:#F3777C"/>
		<stop  offset="0.9606" style="stop-color:#ED1C24"/>
		<stop  offset="1" style="stop-color:#371212"/>
	</radialGradient>
	<circle fill="url(#SVGID_32_)" cx="96.286" cy="96" r="5"/>
	<radialGradient id="SVGID_33_" cx="99.2871" cy="52.6655" r="30.7154" gradientUnits="userSpaceOnUse">
		<stop  offset="0" style="stop-color:#EC2127"/>
		<stop  offset="1" style="stop-color:#6D0F12"/>
	</radialGradient>
	<polygon fill="url(#SVGID_33_)" points="96.287,96 96.286,9.333 96.288,9.331 102.287,23.869 100.288,78.555 101.288,90.185 	"/>
	<polygon opacity="0.5" fill="#58595B" points="96.285,96 96.286,9.333 96.284,9.331 90.285,23.869 92.284,78.555 91.284,90.185 	
		"/>
	<radialGradient id="SVGID_34_" cx="93.7852" cy="52.6655" r="30.6931" gradientUnits="userSpaceOnUse">
		<stop  offset="0" style="stop-color:#939598"/>
		<stop  offset="1" style="stop-color:#6D6E71"/>
	</radialGradient>
	<polygon fill="url(#SVGID_34_)" points="96.285,96 96.286,9.333 96.284,9.331 91.284,23.869 93.284,78.555 92.284,90.185 	"/>
	<radialGradient id="SVGID_35_" cx="98.7852" cy="52.6655" r="30.6931" gradientUnits="userSpaceOnUse">
		<stop  offset="0" style="stop-color:#F3777C"/>
		<stop  offset="1" style="stop-color:#AD1F24"/>
	</radialGradient>
	<polygon fill="url(#SVGID_35_)" points="96.285,96 96.286,9.333 96.286,9.331 101.286,23.869 99.286,78.555 100.286,90.185 	"/>
	<polygon fill="#371212" points="96.285,96 96.286,9.333 96.284,9.331 90.285,23.869 92.284,78.555 91.284,90.185 	"/>
	<radialGradient id="SVGID_36_" cx="93.7852" cy="52.6655" r="30.6931" gradientUnits="userSpaceOnUse">
		<stop  offset="0" style="stop-color:#EC2127"/>
		<stop  offset="1" style="stop-color:#6D0F12"/>
	</radialGradient>
	<polygon fill="url(#SVGID_36_)" points="96.285,96 96.286,9.333 96.284,9.331 91.284,23.869 93.284,78.555 92.284,90.185 	"/>
	<radialGradient id="SVGID_37_" cx="74.9512" cy="121.2061" r="23.3494" gradientUnits="userSpaceOnUse">
		<stop  offset="0" style="stop-color:#EC2127"/>
		<stop  offset="1" style="stop-color:#6D0F12"/>
	</radialGradient>
	<polygon fill="url(#SVGID_37_)" points="96.219,96.001 53.617,146.407 53.617,146.41 67.583,139.179 88.014,111.908 
		96.285,103.672 	"/>
	<polygon opacity="0.5" fill="#58595B" points="96.218,96 53.617,146.407 53.614,146.408 58.417,131.432 81.901,106.742 
		88.645,97.214 	"/>
	
		<radialGradient id="SVGID_38_" cx="95.6592" cy="57.1211" r="23.4008" gradientTransform="matrix(0.7638 0.6455 0.6455 -0.7638 -36.9296 101.4722)" gradientUnits="userSpaceOnUse">
		<stop  offset="0" style="stop-color:#939598"/>
		<stop  offset="1" style="stop-color:#6D6E71"/>
	</radialGradient>
	<polygon fill="url(#SVGID_38_)" points="96.218,96 53.617,146.407 53.614,146.408 59.18,132.077 82.665,107.387 89.408,97.859 	"/>
	
		<radialGradient id="SVGID_39_" cx="100.6592" cy="57.1211" r="23.4007" gradientTransform="matrix(0.7638 0.6455 0.6455 -0.7638 -36.9296 101.4722)" gradientUnits="userSpaceOnUse">
		<stop  offset="0" style="stop-color:#F3777C"/>
		<stop  offset="1" style="stop-color:#AD1F24"/>
	</radialGradient>
	<polygon fill="url(#SVGID_39_)" points="96.218,96 53.617,146.407 53.616,146.409 66.818,138.533 87.249,111.262 95.52,103.024 	
		"/>
	<polygon fill="#371212" points="96.218,96 53.617,146.407 53.614,146.408 58.417,131.432 81.901,106.742 88.645,97.214 	"/>
	
		<radialGradient id="SVGID_40_" cx="95.6592" cy="57.1211" r="23.4008" gradientTransform="matrix(0.7638 0.6455 0.6455 -0.7638 -36.9296 101.4722)" gradientUnits="userSpaceOnUse">
		<stop  offset="0" style="stop-color:#EC2127"/>
		<stop  offset="1" style="stop-color:#6D0F12"/>
	</radialGradient>
	<polygon fill="url(#SVGID_40_)" points="96.218,96 53.617,146.407 53.614,146.408 59.18,132.077 82.665,107.387 89.408,97.859 	"/>
</g>
</svg>
